<svg width="24" height="24" viewBox="0 0 24 24" fill="none" xmlns="http://www.w3.org/2000/svg">
<path d="M16.0171 2H7.94706C6.37021 2.00185 4.8585 2.62914 3.74359 3.74424C2.62868 4.85933 2.00165 6.37115 2.00006 7.948L2.00006 16.018C2.00191 17.5948 2.6292 19.1066 3.7443 20.2215C4.85939 21.3364 6.37121 21.9634 7.94806 21.965H16.0181C17.5949 21.9631 19.1066 21.3359 20.2215 20.2208C21.3364 19.1057 21.9635 17.5938 21.9651 16.017V7.947C21.9632 6.37015 21.3359 4.85844 20.2208 3.74353C19.1057 2.62862 17.5939 2.00159 16.0171 2V2ZM19.9571 16.017C19.9571 16.5344 19.8552 17.0468 19.6571 17.5248C19.4591 18.0028 19.1689 18.4371 18.8031 18.803C18.4372 19.1689 18.0029 19.4591 17.5248 19.6571C17.0468 19.8551 16.5345 19.957 16.0171 19.957H7.94706C6.90228 19.9567 5.90038 19.5415 5.16171 18.8026C4.42303 18.0638 4.00806 17.0618 4.00806 16.017V7.947C4.00833 6.90222 4.42355 5.90032 5.16241 5.16165C5.90128 4.42297 6.90328 4.008 7.94806 4.008H16.0181C17.0628 4.00827 18.0647 4.42349 18.8034 5.16235C19.5421 5.90122 19.9571 6.90322 19.9571 7.948V16.018V16.017Z" fill="#FFFFFF"/>
<path d="M11.9821 6.81909C10.6135 6.82121 9.3016 7.36588 8.33397 8.3337C7.36633 9.30152 6.82192 10.6135 6.82007 11.9821C6.82166 13.351 7.36609 14.6634 8.33397 15.6315C9.30185 16.5996 10.6142 17.1442 11.9831 17.1461C13.3522 17.1445 14.6647 16.5999 15.6328 15.6318C16.6009 14.6637 17.1455 13.3512 17.1471 11.9821C17.145 10.6132 16.6 9.30098 15.6318 8.33329C14.6635 7.3656 13.351 6.82141 11.9821 6.82009V6.81909ZM11.9821 15.1381C11.1453 15.1381 10.3428 14.8057 9.75115 14.214C9.15947 13.6223 8.82707 12.8198 8.82707 11.9831C8.82707 11.1463 9.15947 10.3438 9.75115 9.75217C10.3428 9.16049 11.1453 8.82809 11.9821 8.82809C12.8188 8.82809 13.6213 9.16049 14.213 9.75217C14.8047 10.3438 15.1371 11.1463 15.1371 11.9831C15.1371 12.8198 14.8047 13.6223 14.213 14.214C13.6213 14.8057 12.8188 15.1381 11.9821 15.1381Z" fill="#FFFFFF"/>
<path d="M17.1561 8.09509C17.8392 8.09509 18.3931 7.54127 18.3931 6.85809C18.3931 6.17492 17.8392 5.62109 17.1561 5.62109C16.4729 5.62109 15.9191 6.17492 15.9191 6.85809C15.9191 7.54127 16.4729 8.09509 17.1561 8.09509Z" fill="#FFFFFF"/>
</svg>
